<svg width="25" height="25" viewBox="0 0 25 25" fill="none" xmlns="http://www.w3.org/2000/svg">
<path d="M7.26017 22.5H17.7402C20.5002 22.5 21.6002 20.81 21.7302 18.75L22.2502 10.49C22.3902 8.33 20.6702 6.5 18.5002 6.5C17.8902 6.5 17.3302 6.15 17.0502 5.61L16.3302 4.16C15.8702 3.25 14.6702 2.5 13.6502 2.5H11.3602C10.3302 2.5 9.13017 3.25 8.67017 4.16L7.95017 5.61C7.67017 6.15 7.11017 6.5 6.50017 6.5C4.33017 6.5 2.61017 8.33 2.75017 10.49L3.27017 18.75C3.39017 20.81 4.50017 22.5 7.26017 22.5Z" stroke="#FDFDFD" stroke-width="1.5" stroke-linecap="round" stroke-linejoin="round"/>
<path d="M11 8.5H14" stroke="#FDFDFD" stroke-width="1.5" stroke-linecap="round" stroke-linejoin="round"/>
<path d="M12.5 18.5C14.29 18.5 15.75 17.04 15.75 15.25C15.75 13.46 14.29 12 12.5 12C10.71 12 9.25 13.46 9.25 15.25C9.25 17.04 10.71 18.5 12.5 18.5Z" stroke="#FDFDFD" stroke-width="1.5" stroke-linecap="round" stroke-linejoin="round"/>
</svg>
