<svg width="24" height="24" viewBox="0 0 24 24" fill="none" xmlns="http://www.w3.org/2000/svg">
<path d="M18.0811 13.5669C18.3763 12.7576 18.5305 11.8963 18.5294 11.0202V11.0196C18.5294 7.35359 15.8722 4.29726 12.3824 3.67522M18.0811 13.5669L11.0694 3.55957M18.0811 13.5669C18.3705 12.7718 18.5284 11.9139 18.5284 11.0196C18.5284 7.35169 15.8732 4.29705 12.3824 3.67522M18.0811 13.5669L11.0694 3.55957M12.3824 3.67522C11.956 3.59923 11.5172 3.55957 11.0694 3.55957M12.3824 3.67522C11.9561 3.59929 11.5173 3.55963 11.0694 3.55957M16.6354 16.6827L18.8052 18.8583L16.6329 16.686L16.3042 16.3573L15.9524 16.6613C15.2074 17.3052 14.3328 17.8039 13.3763 18.1149C14.5431 17.7349 15.5841 17.0748 16.4197 16.2142L16.3001 16.3465L16.6354 16.6827ZM10.3489 3.59407C7.83995 3.83582 5.68572 5.32835 4.52486 7.44108C5.68422 5.32898 7.83635 3.83587 10.3489 3.59407ZM10.3489 18.4451C7.83635 18.2033 5.68422 16.7102 4.52486 14.5981C5.68572 16.7108 7.83995 18.2033 10.3489 18.4451Z" fill="#BDBDBD" stroke="#BDBDBD"/>
</svg>
