<svg width="147" height="147" viewBox="0 0 147 147" fill="none" xmlns="http://www.w3.org/2000/svg">
<g opacity="0.48">
<path opacity="0.48" fill-rule="evenodd" clip-rule="evenodd" d="M25.9589 105.431L27.7421 107.214L29.531 105.426L30.2954 106.19L28.5061 107.978L30.2905 109.761L29.524 110.527L27.7395 108.744L25.9519 110.532L25.1875 109.768L26.9755 107.981L25.1924 106.197L25.9589 105.431Z" fill="#757575"/>
<path opacity="0.48" fill-rule="evenodd" clip-rule="evenodd" d="M106.868 15.6403L108.651 17.4236L110.44 15.6353L111.204 16.3995L109.415 18.1874L111.199 19.9707L110.433 20.737L108.648 18.9539L106.861 20.7419L106.096 19.9778L107.884 18.1901L106.101 16.4065L106.868 15.6403Z" fill="#757575"/>
<path fill-rule="evenodd" clip-rule="evenodd" d="M118.455 47.8245L117.182 49.0974L117.18 49.0989C117.155 49.1237 117.136 49.1531 117.122 49.1856C117.109 49.2179 117.102 49.2526 117.102 49.2876C117.102 49.3228 117.109 49.3574 117.122 49.3898C117.136 49.4222 117.155 49.4516 117.18 49.4764L117.182 49.478L118.455 50.7509C118.506 50.801 118.574 50.8294 118.645 50.8294C118.716 50.8294 118.785 50.8012 118.835 50.7511L120.11 49.4764C120.135 49.4516 120.155 49.4222 120.168 49.3898C120.182 49.3573 120.189 49.3226 120.189 49.2876C120.189 49.2527 120.182 49.218 120.168 49.1856C120.155 49.1531 120.135 49.1237 120.11 49.0989L120.108 49.0974L118.835 47.8245C118.785 47.7744 118.716 47.7459 118.645 47.7459C118.574 47.7459 118.506 47.7744 118.455 47.8245ZM116.107 48.0211L117.381 46.7477C117.717 46.4131 118.171 46.2251 118.645 46.2251C119.119 46.2251 119.574 46.4131 119.909 46.7477L121.182 48.0202C121.349 48.1861 121.482 48.3842 121.572 48.6012C121.663 48.8187 121.709 49.0519 121.709 49.2876C121.709 49.5233 121.663 49.7566 121.572 49.9741C121.482 50.1912 121.35 50.3883 121.183 50.5542L121.182 50.5551L119.909 51.8276C119.574 52.1622 119.119 52.3501 118.645 52.3501C118.171 52.3501 117.717 52.1622 117.381 51.8276L116.108 50.5551L116.107 50.5541C115.941 50.3883 115.808 50.1912 115.718 49.9741C115.628 49.7565 115.581 49.5232 115.581 49.2876C115.581 49.052 115.628 48.8188 115.718 48.6012C115.808 48.3842 115.941 48.1871 116.107 48.0211Z" fill="#757575"/>
<path opacity="0.8" fill-rule="evenodd" clip-rule="evenodd" d="M76.3858 129.5L75.1127 130.772L75.111 130.775C75.0861 130.799 75.0664 130.829 75.0529 130.86C75.0394 130.894 75.0326 130.928 75.0326 130.963C75.0326 130.998 75.0394 131.033 75.0529 131.065C75.0664 131.098 75.0861 131.128 75.111 131.152L75.1127 131.153L76.3858 132.426C76.4363 132.476 76.5048 132.504 76.5758 132.504C76.647 132.504 76.7152 132.476 76.7656 132.426L78.0407 131.152C78.0655 131.128 78.0853 131.098 78.0989 131.065C78.1123 131.033 78.1192 130.998 78.1192 130.963C78.1192 130.928 78.1123 130.894 78.0989 130.86C78.0853 130.829 78.0655 130.799 78.0407 130.775L78.0391 130.772L76.7659 129.5C76.7155 129.449 76.647 129.421 76.5758 129.421C76.5048 129.421 76.4363 129.449 76.3858 129.5ZM74.0381 129.697L75.312 128.423C75.6474 128.088 76.102 127.901 76.5758 127.901C77.0498 127.901 77.5042 128.088 77.8398 128.423L79.1127 129.696L79.1135 129.697C79.2802 129.862 79.4125 130.059 79.5028 130.276C79.5934 130.494 79.64 130.727 79.64 130.963C79.64 131.199 79.5934 131.431 79.5028 131.649C79.4125 131.866 79.2802 132.063 79.1135 132.23L77.8398 133.503C77.5042 133.837 77.0498 134.026 76.5758 134.026C76.102 134.026 75.6474 133.837 75.312 133.503L74.0391 132.23C73.8724 132.063 73.7391 131.866 73.6488 131.649C73.5583 131.431 73.5117 131.199 73.5117 130.963C73.5117 130.727 73.5583 130.494 73.6488 130.276C73.7392 130.059 73.8714 129.862 74.0381 129.697Z" fill="#757575"/>
<path opacity="0.24" fill-rule="evenodd" clip-rule="evenodd" d="M128.076 81.239C128.259 81.1918 128.451 81.1907 128.635 81.2364C128.837 81.2864 129.019 81.3903 129.166 81.5363C129.312 81.6828 129.416 81.8663 129.467 82.0672C129.512 82.2512 129.511 82.4433 129.464 82.6261L128.759 86.413C128.701 86.7105 128.514 87.1386 128.039 87.2843C127.565 87.4301 127.17 87.1807 126.957 86.9669L123.736 83.7477C123.518 83.5315 123.269 83.1349 123.416 82.6599C123.563 82.1853 123.993 81.9986 124.293 81.9431L124.295 81.9429L128.076 81.239ZM127.949 82.7537L125.306 83.2456L127.456 85.3948L127.949 82.7537Z" fill="#757575"/>
<path opacity="0.8" fill-rule="evenodd" clip-rule="evenodd" d="M125.515 115.476C125.697 115.429 125.889 115.428 126.073 115.473C126.274 115.523 126.458 115.627 126.604 115.773C126.751 115.92 126.855 116.103 126.904 116.304C126.95 116.488 126.949 116.68 126.901 116.863L126.196 120.65C126.139 120.947 125.952 121.375 125.478 121.521C125.002 121.667 124.608 121.418 124.394 121.204L121.174 117.985C120.956 117.768 120.707 117.372 120.854 116.897C121.002 116.422 121.431 116.235 121.732 116.18C121.731 116.18 121.732 116.18 121.732 116.18L125.515 115.476ZM125.387 116.991L122.745 117.482L124.895 119.632L125.387 116.991Z" fill="#757575"/>
<path opacity="0.48" fill-rule="evenodd" clip-rule="evenodd" d="M15.3135 88.7793C15.0907 88.7793 14.8729 88.8454 14.6877 88.9691C14.5024 89.093 14.3581 89.2686 14.2729 89.4742C14.1877 89.6799 14.1654 89.9064 14.2089 90.1247C14.2522 90.343 14.3595 90.5436 14.517 90.701C14.6744 90.8585 14.875 90.9656 15.0937 91.0091C15.3125 91.0526 15.539 91.0303 15.7445 90.9452C15.9503 90.86 16.1262 90.7156 16.2501 90.5304C16.3738 90.3453 16.4398 90.1276 16.4398 89.905C16.4398 89.6065 16.3211 89.3202 16.1099 89.109C15.8989 88.898 15.6124 88.7793 15.3135 88.7793ZM13.6118 87.3586C14.1155 87.0222 14.7077 86.8425 15.3135 86.8425C16.1258 86.8425 16.9049 87.1651 17.4793 87.7394C18.0538 88.3138 18.3766 89.0927 18.3766 89.905C18.3766 90.5108 18.1969 91.103 17.8602 91.6066C17.5237 92.11 17.0454 92.5028 16.4855 92.7345C15.9257 92.9664 15.3099 93.0268 14.716 92.9086C14.122 92.7905 13.5762 92.4991 13.1477 92.0707C12.7193 91.6424 12.4276 91.0967 12.3094 90.5026C12.1911 89.9085 12.2518 89.2925 12.4837 88.7329C12.7156 88.1732 13.1082 87.695 13.6118 87.3586Z" fill="#757575"/>
<path opacity="0.8" fill-rule="evenodd" clip-rule="evenodd" d="M66.8149 22.5421C66.5922 22.5421 66.3744 22.6081 66.1892 22.7318C66.0039 22.8557 65.8596 23.0315 65.7744 23.237C65.6892 23.4427 65.6669 23.6691 65.7104 23.8874C65.7537 24.1058 65.861 24.3063 66.0184 24.4637C66.1759 24.6211 66.3765 24.7283 66.5952 24.7718C66.814 24.8153 67.0405 24.793 67.246 24.7079C67.4518 24.6227 67.6277 24.4783 67.7516 24.2931C67.8753 24.108 67.9413 23.8904 67.9413 23.6677C67.9413 23.3693 67.8226 23.0829 67.6114 22.8718C67.4004 22.6607 67.1138 22.5421 66.8149 22.5421ZM65.1133 21.1214C65.617 20.7849 66.2092 20.6052 66.8149 20.6052C67.6272 20.6052 68.4063 20.9278 68.9807 21.5022C69.5553 22.0765 69.878 22.8555 69.878 23.6677C69.878 24.2735 69.6983 24.8657 69.3617 25.3692C69.0252 25.8728 68.5468 26.2655 67.987 26.4974C67.4272 26.7291 66.8114 26.7895 66.2175 26.6714C65.6235 26.5533 65.0776 26.2618 64.6491 25.8334C64.2208 25.4051 63.929 24.8594 63.8107 24.2654C63.6927 23.6713 63.7533 23.0553 63.9852 22.4956C64.2171 21.9359 64.6097 21.4578 65.1133 21.1214Z" fill="#757575"/>
</g>
<path d="M73.5003 37.9749C51.8507 37.9749 34.3003 52.8462 34.3003 71.1908C34.3003 80.0464 38.3909 88.0919 45.0571 94.0463C45.9948 94.8839 46.3679 96.2082 46.3679 97.4645V106.018C46.3679 106.71 46.6868 107.357 47.2173 107.739C47.2337 107.745 48.0679 108.41 49.1142 107.942C59.1734 103.447 60.3055 102.542 62.6154 103.107C87.6369 109.228 112.7 93.3064 112.7 71.1908C112.7 52.8462 95.1498 37.9749 73.5003 37.9749Z" fill="#FAFAFA"/>
<path opacity="0.16" d="M73.5003 37.9749C51.8507 37.9749 34.3003 52.8462 34.3003 71.1908C34.3003 80.0464 38.3909 88.0919 45.0571 94.0463C45.9948 94.8839 46.3679 96.2082 46.3679 97.4645V106.018C46.3679 106.71 46.6868 107.357 47.2173 107.739C47.2337 107.745 48.0679 108.41 49.1142 107.942C59.1734 103.447 60.3055 102.542 62.6154 103.107C87.6369 109.228 112.7 93.3064 112.7 71.1908C112.7 52.8462 95.1498 37.9749 73.5003 37.9749Z" fill="#757575"/>
<path opacity="0.08" d="M92.5427 99.6935C67.3863 105.847 42.1882 89.8397 42.1882 67.6053C42.1882 56.4023 48.6992 46.4888 58.6889 40.4307C44.3828 45.3819 34.3003 57.2878 34.3003 71.1911C34.3003 80.0467 38.3909 88.0922 45.0571 94.0466C45.9948 94.8842 46.3679 96.2086 46.3679 97.4648V106.019C46.3679 107.535 47.8244 108.519 49.1142 107.943C59.1734 103.447 60.3054 102.543 62.6154 103.108C73.7759 105.838 84.9447 104.182 93.894 99.5483C93.4358 99.5238 93.0134 99.5783 92.5427 99.6935Z" fill="#757575"/>
<path d="M57.4952 76.5861C59.5136 76.5861 61.1498 74.9498 61.1498 72.9315C61.1498 70.9132 59.5136 69.2771 57.4952 69.2771C55.4769 69.2771 53.8408 70.9132 53.8408 72.9315C53.8408 74.9498 55.4769 76.5861 57.4952 76.5861Z" fill="#EEEEEE"/>
<path d="M73.5001 76.5861C75.5184 76.5861 77.1547 74.9498 77.1547 72.9315C77.1547 70.9132 75.5184 69.2771 73.5001 69.2771C71.4818 69.2771 69.8457 70.9132 69.8457 72.9315C69.8457 74.9498 71.4818 76.5861 73.5001 76.5861Z" fill="#EEEEEE"/>
<path d="M89.505 76.5861C91.5233 76.5861 93.1595 74.9498 93.1595 72.9315C93.1595 70.9132 91.5233 69.2771 89.505 69.2771C87.4867 69.2771 85.8506 70.9132 85.8506 72.9315C85.8506 74.9498 87.4867 76.5861 89.505 76.5861Z" fill="#EEEEEE"/>
</svg>
