<svg width="327" height="167" viewBox="0 0 327 167" fill="none" xmlns="http://www.w3.org/2000/svg">
<path d="M183.119 55.0654C182.969 54.3522 183.103 53.609 183.491 52.9922C183.879 52.3753 184.491 51.933 185.198 51.7583L211.708 44.6511C213.292 44.2264 214.904 45.1528 215.255 46.6887L215.743 48.829C216.094 50.3649 215.043 51.8914 213.43 52.189L186.431 57.1553C185.716 57.3004 184.973 57.1641 184.356 56.7748C183.739 56.3855 183.295 55.7732 183.119 55.0654Z" fill="#9E9E9E"/>
<path d="M176.834 43.4903C176.701 43.2968 176.607 43.0791 176.558 42.8495C176.51 42.6199 176.506 42.3829 176.549 42.152C176.592 41.9212 176.68 41.701 176.808 41.5041C176.935 41.3072 177.101 41.1374 177.294 41.0045L191.826 30.6048C192.238 30.3057 192.752 30.1824 193.255 30.2619C193.758 30.3414 194.209 30.6171 194.509 31.0287L195.339 32.2167C195.479 32.4213 195.575 32.6526 195.621 32.8962C195.668 33.1399 195.663 33.3904 195.607 33.632C195.552 33.8737 195.447 34.1012 195.299 34.3002C195.151 34.4993 194.963 34.6655 194.748 34.7883L179.386 44.0005C178.975 44.2519 178.483 44.3389 178.01 44.2444C177.537 44.1498 177.117 43.8806 176.834 43.4903Z" fill="#9E9E9E"/>
<path d="M165.243 39.6801C163.813 39.1382 163.226 37.299 163.91 35.5107L176.068 3.75962C176.794 1.86312 178.663 0.761101 180.179 1.33634L182.292 2.13772C183.808 2.71277 184.361 4.73283 183.509 6.58164L169.238 37.5314C168.435 39.2744 166.672 40.222 165.243 39.6801Z" fill="#9E9E9E"/>
<path d="M208.527 143.909L176.112 111.876L169.695 118.37L202.11 150.402L208.527 143.909Z" fill="#9E9E9E"/>
<path d="M220.908 152.512L195.684 127.594C195.548 127.458 195.318 127.458 195.182 127.594L185.633 137.253C185.497 137.39 185.497 137.619 185.633 137.755L210.849 162.673C210.994 162.81 211.215 162.81 211.351 162.673L220.9 153.014C221.036 152.878 221.036 152.648 220.9 152.512H220.908Z" fill="#E0E0E0"/>
<path d="M147.381 47.2236C125.076 47.2236 107 65.3078 107 87.6045C107 109.901 125.076 127.985 147.381 127.985C156.385 127.985 164.699 125.041 171.405 120.062C173.865 118.241 176.103 116.148 178.086 113.824C184.119 106.778 187.762 97.6211 187.762 87.6045C187.762 65.3078 169.686 47.2236 147.381 47.2236ZM147.381 121.399C128.718 121.399 113.587 106.267 113.587 87.6045C113.587 68.9417 128.718 53.819 147.381 53.819C166.044 53.819 181.175 68.9417 181.175 87.6045C181.175 106.267 166.044 121.399 147.381 121.399Z" fill="#E0E0E0"/>
</svg>
