<svg width="25" height="25" viewBox="0 0 25 25" fill="none" xmlns="http://www.w3.org/2000/svg">
<path d="M14.5 5.5C14.5 4.4 13.6 3.5 12.5 3.5C11.4 3.5 10.5 4.4 10.5 5.5C10.5 6.6 11.4 7.5 12.5 7.5C13.6 7.5 14.5 6.6 14.5 5.5Z" stroke="#212121" stroke-width="1.5"/>
<path d="M14.5 19.5C14.5 18.4 13.6 17.5 12.5 17.5C11.4 17.5 10.5 18.4 10.5 19.5C10.5 20.6 11.4 21.5 12.5 21.5C13.6 21.5 14.5 20.6 14.5 19.5Z" stroke="#212121" stroke-width="1.5"/>
<path d="M14.5 12.5C14.5 11.4 13.6 10.5 12.5 10.5C11.4 10.5 10.5 11.4 10.5 12.5C10.5 13.6 11.4 14.5 12.5 14.5C13.6 14.5 14.5 13.6 14.5 12.5Z" stroke="#212121" stroke-width="1.5"/>
</svg>
