<svg width="77" height="115" viewBox="0 0 77 115" fill="none" xmlns="http://www.w3.org/2000/svg">
<rect width="76.1046" height="25.5462" transform="matrix(0.997522 0.0703484 -0.0428871 0.99908 1.08594 0.967285)" fill="white"/>
<rect width="76.1046" height="25.5462" transform="matrix(0.997523 0.0703443 -0.0428896 0.99908 1.09375 59.9238)" fill="#FAFAFA"/>
<path d="M18.3865 40.09C18.1065 40.09 17.8825 40.006 17.7145 39.838C17.5465 39.67 17.4625 39.4413 17.4625 39.152C17.4625 38.5453 17.7705 38.242 18.3865 38.242C18.6665 38.242 18.8858 38.326 19.0445 38.494C19.2125 38.6527 19.2965 38.872 19.2965 39.152C19.2965 39.7773 18.9932 40.09 18.3865 40.09ZM20.5425 40.09C20.2625 40.09 20.0385 40.006 19.8705 39.838C19.7025 39.67 19.6185 39.4413 19.6185 39.152C19.6185 38.5453 19.9265 38.242 20.5425 38.242C20.8225 38.242 21.0418 38.326 21.2005 38.494C21.3685 38.6527 21.4525 38.872 21.4525 39.152C21.4525 39.7773 21.1492 40.09 20.5425 40.09ZM22.9085 46.306H24.1685V48H22.7405C21.8725 48 21.2005 47.7107 20.7245 47.132C20.3232 47.44 19.8332 47.594 19.2545 47.594C18.3958 47.594 17.7098 47.272 17.1965 46.628C16.7765 46.096 16.5665 45.4567 16.5665 44.71C16.5665 43.786 16.8652 43.0347 17.4625 42.456C17.9665 41.9707 18.5498 41.728 19.2125 41.728C19.5578 41.728 19.8752 41.7933 20.1645 41.924V41.56L21.9145 40.636V45.298C21.9145 45.662 21.9892 45.9233 22.1385 46.082C22.2972 46.2313 22.5538 46.306 22.9085 46.306ZM20.1645 43.688C19.9218 43.4827 19.6465 43.38 19.3385 43.38C19.0305 43.38 18.7785 43.506 18.5825 43.758C18.3958 44.01 18.3025 44.3413 18.3025 44.752C18.3025 45.1627 18.3958 45.4893 18.5825 45.732C18.7692 45.9747 19.0258 46.096 19.3525 46.096C19.7072 46.096 19.9825 45.9747 20.1785 45.732C20.1692 45.6573 20.1645 45.5407 20.1645 45.382V43.688ZM28.312 46.306H29.572V48H28.144C27.4627 48 26.898 47.818 26.45 47.454C26.002 47.818 25.4374 48 24.756 48H23.328V46.306H24.588C24.9427 46.306 25.1947 46.2313 25.344 46.082C25.4934 45.9233 25.568 45.662 25.568 45.298V42.708L27.332 41.784V45.298C27.332 45.662 27.4067 45.9233 27.556 46.082C27.7054 46.2313 27.9574 46.306 28.312 46.306ZM24.686 49.274C24.966 49.274 25.1854 49.3533 25.344 49.512C25.512 49.68 25.596 49.904 25.596 50.184C25.596 50.8093 25.2927 51.122 24.686 51.122C24.406 51.122 24.182 51.038 24.014 50.87C23.846 50.702 23.762 50.4733 23.762 50.184C23.762 49.5773 24.07 49.274 24.686 49.274ZM26.842 49.274C27.122 49.274 27.3414 49.3533 27.5 49.512C27.668 49.68 27.752 49.904 27.752 50.184C27.752 50.8093 27.4487 51.122 26.842 51.122C26.562 51.122 26.338 51.038 26.17 50.87C26.002 50.702 25.918 50.4733 25.918 50.184C25.918 49.5773 26.226 49.274 26.842 49.274ZM31.8924 40.37C31.6124 40.37 31.3884 40.286 31.2204 40.118C31.0524 39.95 30.9684 39.7213 30.9684 39.432C30.9684 39.1613 31.0524 38.942 31.2204 38.774C31.3884 38.606 31.6124 38.522 31.8924 38.522C32.1724 38.522 32.3918 38.606 32.5504 38.774C32.7184 38.9327 32.8024 39.152 32.8024 39.432C32.8024 40.0573 32.4991 40.37 31.8924 40.37ZM28.7284 48V46.306H29.9884C30.3431 46.306 30.5951 46.2313 30.7444 46.082C30.8938 45.9233 30.9684 45.662 30.9684 45.298V42.708L32.7324 41.784V45.382C32.7324 46.2313 32.4711 46.894 31.9484 47.37C31.4911 47.79 30.8938 48 30.1564 48H28.7284ZM38.4123 47.594C38.1229 47.65 37.8243 47.678 37.5163 47.678C36.6576 47.678 35.9716 47.356 35.4583 46.712C35.0383 46.1707 34.8283 45.5173 34.8283 44.752C34.8283 43.7253 35.1083 42.918 35.6683 42.33C36.1629 41.8073 36.8163 41.546 37.6283 41.546C38.4589 41.546 39.1076 41.812 39.5743 42.344C39.9756 42.8013 40.1763 43.3987 40.1763 44.136V47.132C40.1763 48.2333 39.8869 49.1013 39.3083 49.736C38.7669 50.3333 38.0296 50.632 37.0963 50.632C36.5083 50.632 35.9343 50.4733 35.3743 50.156V48.63C35.8783 48.9193 36.3823 49.064 36.8863 49.064C37.7916 49.064 38.3003 48.574 38.4123 47.594ZM38.4263 44.108C38.4263 43.492 38.1603 43.184 37.6283 43.184C37.2923 43.184 37.0263 43.3193 36.8303 43.59C36.6436 43.8607 36.5503 44.2293 36.5503 44.696C36.5503 45.6853 36.9049 46.18 37.6143 46.18C37.9876 46.18 38.2583 46.0867 38.4263 45.9V44.108ZM46.9928 46.306H48.2528V48H46.8248C46.5074 48 46.2134 47.958 45.9428 47.874C45.8214 48.77 45.4621 49.4793 44.8648 50.002C44.3234 50.4687 43.6748 50.702 42.9188 50.702C42.3308 50.702 41.7567 50.5527 41.1967 50.254V48.714C41.6821 48.9847 42.1581 49.12 42.6248 49.12C43.1381 49.12 43.5348 48.952 43.8148 48.616C44.1041 48.2893 44.2488 47.832 44.2488 47.244V42.708L45.3968 42.106L45.9988 41.784V41.798L46.0128 41.784V45.298C46.0128 45.662 46.0874 45.9233 46.2368 46.082C46.3861 46.2313 46.6381 46.306 46.9928 46.306ZM48.7479 40.552C48.4679 40.552 48.2439 40.468 48.0759 40.3C47.9079 40.132 47.8239 39.9033 47.8239 39.614C47.8239 39.3433 47.9079 39.124 48.0759 38.956C48.2439 38.788 48.4679 38.704 48.7479 38.704C49.0279 38.704 49.2472 38.788 49.4059 38.956C49.5739 39.1147 49.6579 39.334 49.6579 39.614C49.6579 40.2393 49.3546 40.552 48.7479 40.552ZM50.8899 40.552C50.6099 40.552 50.3859 40.468 50.2179 40.3C50.0499 40.1227 49.9659 39.894 49.9659 39.614C49.9659 39.3433 50.0499 39.124 50.2179 38.956C50.3952 38.788 50.6192 38.704 50.8899 38.704C51.1699 38.704 51.3892 38.788 51.5479 38.956C51.7159 39.1147 51.7999 39.334 51.7999 39.614C51.7999 40.2393 51.4966 40.552 50.8899 40.552ZM52.4019 46.306H53.6619V48H52.2339C51.5526 48 50.9879 47.818 50.5399 47.454C50.0919 47.818 49.5272 48 48.8459 48H47.4179V46.306H48.6779C49.0326 46.306 49.2846 46.2313 49.4339 46.082C49.5832 45.9233 49.6579 45.662 49.6579 45.298V42.708L51.4219 41.784V45.298C51.4219 45.662 51.4966 45.9233 51.6459 46.082C51.7952 46.2313 52.0472 46.306 52.4019 46.306ZM60.3783 46.306H61.4843V48H60.1963C59.5149 48 58.9549 47.818 58.5163 47.454C58.0683 47.818 57.5036 48 56.8223 48H52.8183V46.306H56.6403C57.2936 46.306 57.6203 45.984 57.6203 45.34V45.256C57.6203 44.7427 57.4289 44.332 57.0463 44.024C56.6636 43.7067 56.1596 43.548 55.5343 43.548C55.0583 43.548 54.5589 43.6413 54.0363 43.828V42.134L56.8783 38.97H58.6563L56.1083 41.826C56.8456 41.9007 57.4709 42.12 57.9843 42.484C58.9176 43.1187 59.3843 44.038 59.3843 45.242V45.298C59.3843 45.662 59.4589 45.9233 59.6083 46.082C59.7669 46.2313 60.0236 46.306 60.3783 46.306ZM60.6386 48V46.306H61.5206C61.9499 46.306 62.2533 46.2127 62.4306 46.026C62.6173 45.8393 62.7106 45.522 62.7106 45.074V39.908L64.4606 38.97V45.088C64.4606 45.9933 64.1853 46.7167 63.6346 47.258C63.1306 47.7527 62.4586 48 61.6186 48H60.6386ZM66.9807 48V39.908L68.7447 38.97V48H66.9807ZM66.3507 51.808L66.7987 50.996H67.2187C67.116 50.8093 67.0647 50.618 67.0647 50.422C67.0647 50.1233 67.172 49.8667 67.3867 49.652C67.6107 49.4373 67.8767 49.33 68.1847 49.33C68.4647 49.33 68.726 49.428 68.9687 49.624V50.436C68.7447 50.24 68.5207 50.142 68.2967 50.142C67.9887 50.142 67.8347 50.282 67.8347 50.562C67.8347 50.702 67.8954 50.8467 68.0167 50.996H69.4027L68.9547 51.808H66.3507Z" fill="#FAFAFA"/>
<path d="M26.9448 68.09C26.6648 68.09 26.4408 68.006 26.2728 67.838C26.1048 67.67 26.0208 67.4413 26.0208 67.152C26.0208 66.5453 26.3288 66.242 26.9448 66.242C27.2248 66.242 27.4442 66.326 27.6028 66.494C27.7708 66.6527 27.8548 66.872 27.8548 67.152C27.8548 67.7773 27.5515 68.09 26.9448 68.09ZM29.0868 68.09C28.8068 68.09 28.5828 68.006 28.4148 67.838C28.2468 67.6607 28.1628 67.432 28.1628 67.152C28.1628 66.8813 28.2468 66.662 28.4148 66.494C28.5828 66.326 28.8068 66.242 29.0868 66.242C29.3668 66.242 29.5862 66.326 29.7448 66.494C29.9128 66.6527 29.9968 66.872 29.9968 67.152C29.9968 67.7773 29.6935 68.09 29.0868 68.09ZM28.0228 76C27.1362 76 26.4408 75.7013 25.9368 75.104C25.5075 74.5907 25.2928 73.9327 25.2928 73.13C25.2928 72.29 25.5355 71.5573 26.0208 70.932C26.5062 70.3067 27.1968 69.8447 28.0928 69.546C29.0448 69.8633 29.7635 70.3627 30.2488 71.044C30.6875 71.6413 30.9068 72.3367 30.9068 73.13C30.9068 74.054 30.6268 74.7773 30.0668 75.3C29.5815 75.7667 28.9468 76 28.1628 76H28.0228ZM28.0088 74.306H28.1908C28.8442 74.306 29.1708 73.9187 29.1708 73.144C29.1708 72.2573 28.8115 71.6087 28.0928 71.198C27.3835 71.6087 27.0288 72.248 27.0288 73.116C27.0288 73.9093 27.3555 74.306 28.0088 74.306ZM31.9291 76L32.8111 74.306H35.0231C35.4991 74.306 35.7371 74.0307 35.7371 73.48C35.7371 72.444 35.2424 71.6507 34.2531 71.1L35.1211 69.616C36.7077 70.5493 37.5011 71.8467 37.5011 73.508C37.5011 75.1693 36.7824 76 35.3451 76H31.9291ZM42.8849 75.594C42.5956 75.65 42.2969 75.678 41.9889 75.678C41.1303 75.678 40.4443 75.356 39.9309 74.712C39.5109 74.1707 39.3009 73.5173 39.3009 72.752C39.3009 71.7253 39.5809 70.918 40.1409 70.33C40.6356 69.8073 41.2889 69.546 42.1009 69.546C42.9316 69.546 43.5803 69.812 44.0469 70.344C44.4483 70.8013 44.6489 71.3987 44.6489 72.136V75.132C44.6489 76.2333 44.3596 77.1013 43.7809 77.736C43.2396 78.3333 42.5023 78.632 41.5689 78.632C40.9809 78.632 40.4069 78.4733 39.8469 78.156V76.63C40.3509 76.9193 40.8549 77.064 41.3589 77.064C42.2643 77.064 42.7729 76.574 42.8849 75.594ZM42.8989 72.108C42.8989 71.492 42.6329 71.184 42.1009 71.184C41.7649 71.184 41.4989 71.3193 41.3029 71.59C41.1163 71.8607 41.0229 72.2293 41.0229 72.696C41.0229 73.6853 41.3776 74.18 42.0869 74.18C42.4603 74.18 42.7309 74.0867 42.8989 73.9V72.108ZM45.9154 76L46.7974 74.306H49.0094C49.4854 74.306 49.7234 74.0307 49.7234 73.48C49.7234 72.4533 49.2287 71.6647 48.2394 71.114L49.1074 69.616C50.5634 70.4653 51.3474 71.618 51.4594 73.074C51.4967 73.5407 51.5994 73.8627 51.7674 74.04C51.9447 74.2173 52.2434 74.306 52.6634 74.306H53.7274V76H52.5654C51.8747 76 51.2914 75.8087 50.8154 75.426C50.4701 75.8087 49.9754 76 49.3314 76H45.9154ZM62.0166 74.306H63.1926V76H62.0026C61.2653 76 60.6726 75.9207 60.2246 75.762C59.7859 75.594 59.3753 75.3047 58.9926 74.894C57.8259 75.6313 56.4819 76 54.9606 76H52.8886V74.306H54.9746C56.6173 74.306 57.9239 73.816 58.8946 72.836C58.2599 71.7253 57.4899 71.17 56.5846 71.17C55.8379 71.17 55.0213 71.576 54.1346 72.388V70.834C54.9186 69.9753 55.8053 69.546 56.7946 69.546C57.5226 69.546 58.2319 69.812 58.9226 70.344C59.6133 70.876 60.2246 71.632 60.7566 72.612V73.312C60.6073 73.508 60.4113 73.7273 60.1686 73.97C60.5419 74.194 61.1579 74.306 62.0166 74.306ZM64.5895 72.136C64.5895 71.296 64.8509 70.638 65.3735 70.162C65.8309 69.7513 66.4189 69.546 67.1375 69.546C68.0615 69.546 68.7802 69.8867 69.2935 70.568C69.7322 71.1373 69.9515 71.87 69.9515 72.766C69.9515 73.802 69.6762 74.6187 69.1255 75.216C68.6309 75.7387 68.0009 76 67.2355 76C66.4889 76 65.8775 75.8367 65.4015 75.51C64.9535 75.8367 64.4122 76 63.7775 76H62.3495V74.306H63.6095C63.9642 74.306 64.2162 74.2313 64.3655 74.082C64.5149 73.9233 64.5895 73.662 64.5895 73.298V72.136ZM66.3535 73.522C66.3535 74.0447 66.6289 74.306 67.1795 74.306C67.8702 74.306 68.2155 73.774 68.2155 72.71C68.2155 71.6927 67.8562 71.184 67.1375 71.184C66.6149 71.184 66.3535 71.492 66.3535 72.108V73.522Z" fill="#212121"/>
<path d="M38.8942 101.49C38.6142 101.49 38.3902 101.406 38.2222 101.238C38.0542 101.061 37.9702 100.832 37.9702 100.552C37.9702 100.281 38.0542 100.062 38.2222 99.894C38.3902 99.726 38.6142 99.642 38.8942 99.642C39.1742 99.642 39.3935 99.726 39.5522 99.894C39.7202 100.053 39.8042 100.272 39.8042 100.552C39.8042 101.177 39.5008 101.49 38.8942 101.49ZM41.0502 101.49C40.7702 101.49 40.5462 101.406 40.3782 101.238C40.2102 101.07 40.1262 100.841 40.1262 100.552C40.1262 99.9453 40.4342 99.642 41.0502 99.642C41.3302 99.642 41.5495 99.726 41.7082 99.894C41.8762 100.053 41.9602 100.272 41.9602 100.552C41.9602 101.177 41.6568 101.49 41.0502 101.49ZM46.1182 106.306H47.0982V108H45.9502C45.2595 108 44.6948 107.818 44.2562 107.454C43.8082 107.818 43.2388 108 42.5482 108H37.5502C36.7568 108 36.1362 107.734 35.6882 107.202C35.2868 106.735 35.0862 106.133 35.0862 105.396V103.968L36.8362 103.044V105.284C36.8362 105.657 36.9108 105.923 37.0602 106.082C37.2188 106.231 37.4755 106.306 37.8302 106.306H42.3942C42.7488 106.306 43.0008 106.227 43.1502 106.068C43.2995 105.909 43.3742 105.648 43.3742 105.284V102.708L45.1382 101.784V105.298C45.1382 105.662 45.2128 105.923 45.3622 106.082C45.5115 106.231 45.7635 106.306 46.1182 106.306ZM49.8277 100.552C49.5477 100.552 49.3237 100.468 49.1557 100.3C48.9877 100.132 48.9037 99.9033 48.9037 99.614C48.9037 99.0073 49.2117 98.704 49.8277 98.704C50.1077 98.704 50.3271 98.788 50.4857 98.956C50.6537 99.1147 50.7377 99.334 50.7377 99.614C50.7377 100.239 50.4344 100.552 49.8277 100.552ZM51.9837 100.552C51.7037 100.552 51.4797 100.468 51.3117 100.3C51.1437 100.132 51.0597 99.9033 51.0597 99.614C51.0597 99.0073 51.3677 98.704 51.9837 98.704C52.2637 98.704 52.4831 98.788 52.6417 98.956C52.8097 99.1147 52.8937 99.334 52.8937 99.614C52.8937 100.239 52.5904 100.552 51.9837 100.552ZM46.2577 108V106.306H48.4977C48.2177 105.895 48.0777 105.382 48.0777 104.766C48.0777 103.739 48.3577 102.927 48.9177 102.33C49.4217 101.807 50.0797 101.546 50.8917 101.546C51.7224 101.546 52.3664 101.812 52.8237 102.344C53.2344 102.801 53.4397 103.399 53.4397 104.136V105.396C53.4304 106.199 53.1924 106.833 52.7257 107.3C52.2684 107.767 51.6477 108 50.8637 108H46.2577ZM51.6757 104.108C51.6757 103.492 51.4144 103.184 50.8917 103.184C50.1731 103.184 49.8137 103.693 49.8137 104.71C49.8137 105.774 50.1591 106.306 50.8497 106.306C51.4004 106.306 51.6757 106.007 51.6757 105.41V104.108ZM62.4764 106.306V108H60.7544C60.6891 108.84 60.3157 109.512 59.6344 110.016C59.0744 110.427 58.4211 110.632 57.6744 110.632C57.0864 110.632 56.5124 110.473 55.9524 110.156V108.63C56.4564 108.919 56.9604 109.064 57.4644 109.064C57.8564 109.064 58.2017 108.957 58.5004 108.742C58.8084 108.527 58.9764 108.271 59.0044 107.972C58.9297 107.963 58.8131 107.953 58.6544 107.944C58.4957 107.925 58.3744 107.911 58.2904 107.902C57.3291 107.799 56.5871 107.421 56.0644 106.768C55.6257 106.217 55.4064 105.55 55.4064 104.766C55.4064 103.739 55.6864 102.927 56.2464 102.33C56.7411 101.807 57.3944 101.546 58.2064 101.546C59.0371 101.546 59.6857 101.812 60.1524 102.344C60.5537 102.801 60.7544 103.399 60.7544 104.136V106.306H62.4764ZM59.0044 104.108C59.0044 103.492 58.7384 103.184 58.2064 103.184C57.4971 103.184 57.1424 103.693 57.1424 104.71C57.1424 105.615 57.5531 106.119 58.3744 106.222C58.5051 106.25 58.7151 106.273 59.0044 106.292V104.108ZM61.6386 108V106.306H62.5206C62.9499 106.306 63.2533 106.213 63.4306 106.026C63.6173 105.839 63.7106 105.522 63.7106 105.074V99.908L65.4606 98.97V105.088C65.4606 105.993 65.1853 106.717 64.6346 107.258C64.1306 107.753 63.4586 108 62.6186 108H61.6386ZM67.9807 108V99.908L69.7447 98.97V108H67.9807Z" fill="#FAFAFA"/>
<path d="M44.7201 12.37C44.4401 12.37 44.2161 12.286 44.0481 12.118C43.8801 11.95 43.7961 11.7213 43.7961 11.432C43.7961 11.1613 43.8801 10.942 44.0481 10.774C44.2161 10.606 44.4401 10.522 44.7201 10.522C45.0001 10.522 45.2195 10.606 45.3781 10.774C45.5461 10.9327 45.6301 11.152 45.6301 11.432C45.6301 12.0573 45.3268 12.37 44.7201 12.37ZM39.4841 18.292C39.9228 16.9387 40.5761 15.8327 41.4441 14.974C42.3961 14.022 43.4881 13.546 44.7201 13.546C45.8215 13.546 46.7035 13.9287 47.3661 14.694C47.9261 15.338 48.2061 16.136 48.2061 17.088V17.396C48.2061 18.2453 47.9401 18.908 47.4081 19.384C46.9508 19.7947 46.3581 20 45.6301 20H39.5821C39.2648 20 38.9708 19.958 38.7001 19.874C38.5228 20.77 38.0701 21.4747 37.3421 21.988C36.6888 22.436 35.8955 22.66 34.9621 22.66C33.7021 22.66 32.7268 22.2167 32.0361 21.33C31.4948 20.6393 31.2241 19.8273 31.2241 18.894C31.2241 18.1567 31.3968 17.5127 31.7421 16.962L33.4221 16.612C33.0488 17.2467 32.8621 17.914 32.8621 18.614C32.8621 19.3233 33.0628 19.8973 33.4641 20.336C33.8468 20.756 34.3461 20.966 34.9621 20.966C35.6061 20.966 36.1055 20.8027 36.4601 20.476C36.8241 20.1493 37.0061 19.692 37.0061 19.104V15.45L38.7701 14.526V17.298C38.7701 17.8953 39.0081 18.2267 39.4841 18.292ZM46.4421 17.284V17.088C46.4421 16.528 46.2835 16.0707 45.9661 15.716C45.6488 15.3613 45.2381 15.184 44.7341 15.184C44.0061 15.184 43.3248 15.464 42.6901 16.024C42.0648 16.584 41.5701 17.3447 41.2061 18.306H45.5601C45.8961 18.306 46.1248 18.236 46.2461 18.096C46.3768 17.9467 46.4421 17.676 46.4421 17.284ZM53.5353 19.594C53.246 19.65 52.9473 19.678 52.6393 19.678C51.7807 19.678 51.0947 19.356 50.5813 18.712C50.1613 18.1707 49.9513 17.5173 49.9513 16.752C49.9513 15.7253 50.2313 14.918 50.7913 14.33C51.286 13.8073 51.9393 13.546 52.7513 13.546C53.582 13.546 54.2307 13.812 54.6973 14.344C55.0987 14.8013 55.2993 15.3987 55.2993 16.136V19.132C55.2993 20.2333 55.01 21.1013 54.4313 21.736C53.89 22.3333 53.1527 22.632 52.2193 22.632C51.6313 22.632 51.0573 22.4733 50.4973 22.156V20.63C51.0013 20.9193 51.5053 21.064 52.0093 21.064C52.9147 21.064 53.4233 20.574 53.5353 19.594ZM53.5493 16.108C53.5493 15.492 53.2833 15.184 52.7513 15.184C52.4153 15.184 52.1493 15.3193 51.9533 15.59C51.7667 15.8607 51.6733 16.2293 51.6733 16.696C51.6733 17.6853 52.028 18.18 52.7373 18.18C53.1107 18.18 53.3813 18.0867 53.5493 17.9V16.108ZM62.1158 18.306H63.3758V20H61.9478C61.6305 20 61.3365 19.958 61.0658 19.874C60.9445 20.77 60.5851 21.4793 59.9878 22.002C59.4465 22.4687 58.7978 22.702 58.0418 22.702C57.4538 22.702 56.8798 22.5527 56.3198 22.254V20.714C56.8051 20.9847 57.2811 21.12 57.7478 21.12C58.2611 21.12 58.6578 20.952 58.9378 20.616C59.2271 20.2893 59.3718 19.832 59.3718 19.244V14.708L60.5198 14.106L61.1218 13.784V13.798L61.1358 13.784V17.298C61.1358 17.662 61.2105 17.9233 61.3598 18.082C61.5091 18.2313 61.7611 18.306 62.1158 18.306ZM70.2969 18.306V20H62.5409V18.306H64.6129C64.3516 17.7927 64.2209 17.2233 64.2209 16.598C64.2209 15.6087 64.5663 14.8247 65.2569 14.246C65.8169 13.7793 66.4656 13.546 67.2029 13.546C68.2016 13.546 69.0089 13.9753 69.6249 14.834V16.388C68.9436 15.5853 68.2016 15.184 67.3989 15.184C66.9696 15.184 66.6243 15.3193 66.3629 15.59C66.1109 15.8513 65.9849 16.206 65.9849 16.654C65.9849 17.1673 66.1436 17.5733 66.4609 17.872C66.7876 18.1613 67.2309 18.306 67.7909 18.306H70.2969Z" fill="#212121"/>
</svg>
