<svg width="18" height="18" viewBox="0 0 18 18" fill="none" xmlns="http://www.w3.org/2000/svg">
<path d="M15.0811 10.5669C15.3763 9.75764 15.5305 8.89629 15.5294 8.02022V8.01957C15.5294 4.35359 12.8722 1.29726 9.38237 0.675224M15.0811 10.5669L8.06938 0.55957M15.0811 10.5669C15.3705 9.77184 15.5284 8.91394 15.5284 8.01957C15.5284 4.35169 12.8732 1.29705 9.38237 0.675224M15.0811 10.5669L8.06938 0.55957M9.38237 0.675224C8.95602 0.599231 8.51725 0.55957 8.06938 0.55957M9.38237 0.675224C8.95606 0.599285 8.51729 0.559629 8.06938 0.55957M13.6354 13.6827L15.8052 15.8583L13.6329 13.686L13.3042 13.3573L12.9524 13.6613C12.2074 14.3052 11.3328 14.8039 10.3763 15.1149C11.5431 14.7349 12.5841 14.0748 13.4197 13.2142L13.3001 13.3465L13.6354 13.6827ZM7.34893 0.594065C4.83995 0.835818 2.68572 2.32835 1.52486 4.44108C2.68422 2.32898 4.83635 0.835871 7.34893 0.594065ZM7.34893 15.4451C4.83635 15.2033 2.68422 13.7102 1.52486 11.5981C2.68572 13.7108 4.83995 15.2033 7.34893 15.4451Z" fill="#BDBDBD" stroke="#BDBDBD"/>
</svg>
