<svg width="18" height="18" viewBox="0 0 18 18" fill="none" xmlns="http://www.w3.org/2000/svg">
<path d="M0.217449 0.217745C0.116703 0.318964 0.0469513 0.446842 0.0163934 0.586346C-0.0141645 0.725847 -0.00425788 0.871178 0.0449485 1.00525L6.04495 17.5052C6.09892 17.6475 6.19491 17.7701 6.32016 17.8565C6.44542 17.943 6.59401 17.9893 6.7462 17.9893C6.89839 17.9893 7.04698 17.943 7.17223 17.8565C7.29749 17.7701 7.39348 17.6475 7.44745 17.5052L10.0199 11.0627L5.24995 6.30774L6.30745 5.25024L11.0849 10.0277L17.5275 7.44774C17.667 7.39217 17.7866 7.29597 17.8709 7.1716C17.9551 7.04724 18.0001 6.90045 17.9999 6.75024C17.9968 6.59868 17.9479 6.45161 17.8595 6.32844C17.7711 6.20526 17.6475 6.11175 17.5049 6.06024L1.00495 0.0602417C0.872256 0.00914379 0.727771 -0.00317958 0.588341 0.0247059C0.448911 0.0525913 0.320281 0.119541 0.217449 0.217745Z" fill="#82B81C"/>
</svg>
