<svg width="21" height="23" viewBox="0 0 21 23" fill="none" xmlns="http://www.w3.org/2000/svg">
<path d="M5.26017 21.5H15.7402C18.5002 21.5 19.6002 19.81 19.7302 17.75L20.2502 9.49C20.3902 7.33 18.6702 5.5 16.5002 5.5C15.8902 5.5 15.3302 5.15 15.0502 4.61L14.3302 3.16C13.8702 2.25 12.6702 1.5 11.6502 1.5H9.36017C8.33017 1.5 7.13017 2.25 6.67017 3.16L5.95017 4.61C5.67017 5.15 5.11017 5.5 4.50017 5.5C2.33017 5.5 0.610168 7.33 0.750168 9.49L1.27017 17.75C1.39017 19.81 2.50017 21.5 5.26017 21.5Z" stroke="#FDFDFD" stroke-width="1.5" stroke-linecap="round" stroke-linejoin="round"/>
</svg>
