<svg width="117" height="117" viewBox="0 0 117 117" fill="none" xmlns="http://www.w3.org/2000/svg">
<path d="M114.905 44.7984C115.605 47.7108 116.084 50.7089 116.323 53.7741L115.326 53.8519C115.441 55.3267 115.5 56.8175 115.5 58.3222C115.5 59.8269 115.441 61.3177 115.326 62.7925L116.323 62.8703C116.084 65.9355 115.605 68.9336 114.905 71.846L113.933 71.6123C113.23 74.536 112.3 77.3718 111.164 80.1003L112.087 80.4848C110.914 83.2996 109.525 86.002 107.94 88.5715L107.089 88.0464C105.52 90.5892 103.756 92.9997 101.817 95.2569L102.576 95.9084C100.6 98.2093 98.446 100.354 96.135 102.32L95.487 101.558C93.2219 103.486 90.8037 105.24 88.2531 106.799L88.7747 107.652C86.1998 109.226 83.4923 110.605 80.6727 111.769L80.2911 110.844C77.5595 111.972 74.7208 112.894 71.7944 113.591L72.0261 114.564C69.1126 115.257 66.1138 115.732 63.0482 115.969L62.9711 114.972C61.496 115.086 60.0049 115.144 58.5 115.144C56.9951 115.144 55.504 115.086 54.0289 114.972L53.9518 115.969C50.8862 115.732 47.8874 115.257 44.9739 114.564L45.2056 113.591C42.2792 112.894 39.4405 111.972 36.7089 110.844L36.3273 111.769C33.5077 110.605 30.8002 109.226 28.2254 107.652L28.7469 106.799C26.1963 105.24 23.7781 103.486 21.5131 101.558L20.865 102.32C18.5541 100.354 16.3999 98.2093 14.4239 95.9084L15.1826 95.2569C13.244 92.9997 11.48 90.5892 9.91127 88.0465L9.0602 88.5715C7.47504 86.002 6.08577 83.2996 4.91314 80.4848L5.83624 80.1003C4.69955 77.3718 3.77006 74.536 3.06731 71.6123L2.09501 71.846C1.39498 68.9335 0.916008 65.9355 0.676782 62.8703L1.67375 62.7925C1.55864 61.3177 1.5 59.8269 1.5 58.3222C1.5 56.8175 1.55864 55.3267 1.67375 53.8519L0.676782 53.7741C0.916008 50.7089 1.39498 47.7108 2.09501 44.7984L3.06732 45.0321C3.77006 42.1084 4.69955 39.2726 5.83624 36.5441L4.91314 36.1596C6.08577 33.3448 7.47503 30.6424 9.0602 28.0729L9.91127 28.598C11.48 26.0552 13.244 23.6447 15.1826 21.3875L14.4239 20.736C16.3999 18.4352 18.554 16.2909 20.865 14.3243L21.5131 15.0859C23.7781 13.1585 26.1963 11.4049 28.7469 9.84576L28.2253 8.99254C30.8002 7.41863 33.5077 6.03946 36.3273 4.8756L36.7089 5.79995C39.4405 4.67238 42.2792 3.75046 45.2056 3.05355L44.9739 2.08075C47.8874 1.38691 50.8862 0.912232 53.9518 0.675165L54.0289 1.67219C55.504 1.55812 56.9951 1.5 58.5 1.5C60.0049 1.5 61.496 1.55811 62.9711 1.67219L63.0482 0.675165C66.1138 0.912231 69.1126 1.38691 72.0261 2.08075L71.7944 3.05355C74.7208 3.75046 77.5595 4.67238 80.2911 5.79995L80.6727 4.8756C83.4923 6.03946 86.1998 7.41863 88.7747 8.99254L88.2531 9.84576C90.8037 11.4049 93.2219 13.1585 95.4869 15.0859L96.135 14.3243C98.4459 16.2909 100.6 18.4351 102.576 20.736L101.817 21.3875C103.756 23.6447 105.52 26.0552 107.089 28.5979L107.94 28.0729C109.525 30.6424 110.914 33.3448 112.087 36.1596L111.164 36.5441C112.3 39.2726 113.23 42.1084 113.933 45.0321L114.905 44.7984Z" stroke="#BDBDBD" stroke-width="2" stroke-dasharray="10 10"/>
<path d="M8.39844 57.1772C21.3585 71.7582 33.9244 84.8848 46.0035 101.487C59.1361 74.3269 72.5775 47.0726 94.7559 17.5575L88.7799 14.7112C70.0527 35.3625 55.5033 54.9108 42.8611 78.1421C34.0697 69.9072 19.8618 58.2538 11.1866 52.2666L8.39844 57.1772Z" fill="#07BD74"/>
</svg>
