<svg width="8" height="15" viewBox="0 0 8 15" fill="none" xmlns="http://www.w3.org/2000/svg">
<path d="M1.49981 14.9999C1.26615 15.0004 1.03972 14.919 0.859807 14.7699C0.758548 14.686 0.674846 14.5829 0.613494 14.4665C0.552142 14.3502 0.514346 14.2229 0.50227 14.0919C0.490194 13.9609 0.504076 13.8289 0.543121 13.7033C0.582165 13.5777 0.645605 13.461 0.729806 13.3599L5.20981 7.99994L0.889807 2.62994C0.806741 2.52765 0.74471 2.40996 0.707278 2.28362C0.669846 2.15728 0.657752 2.02479 0.671691 1.89376C0.685631 1.76273 0.725328 1.63575 0.788501 1.52011C0.851675 1.40447 0.93708 1.30246 1.03981 1.21994C1.14327 1.1289 1.26444 1.06024 1.3957 1.01825C1.52696 0.976258 1.66549 0.961855 1.80258 0.97594C1.93967 0.990024 2.07238 1.03229 2.19236 1.1001C2.31234 1.1679 2.41701 1.25977 2.49981 1.36994L7.32981 7.36994C7.47689 7.54887 7.55729 7.77332 7.55729 8.00494C7.55729 8.23657 7.47689 8.46101 7.32981 8.63994L2.32981 14.6399C2.22949 14.761 2.10206 14.8566 1.95785 14.9192C1.81364 14.9817 1.65671 15.0094 1.49981 14.9999Z" fill="#111111"/>
</svg>
