<svg width="33" height="32" viewBox="0 0 33 32" fill="none" xmlns="http://www.w3.org/2000/svg">
<circle cx="16.5" cy="16" r="15.5" fill="white" stroke="#F7F7F7"/>
<g clip-path="url(#clip0_1_3381)">
<path d="M14.4998 22.9999C14.2662 23.0004 14.0397 22.919 13.8598 22.7699C13.7585 22.686 13.6748 22.5829 13.6135 22.4665C13.5521 22.3502 13.5143 22.2229 13.5023 22.0919C13.4902 21.9609 13.5041 21.8289 13.5431 21.7033C13.5822 21.5777 13.6456 21.461 13.7298 21.3599L18.2098 15.9999L13.8898 10.6299C13.8067 10.5277 13.7447 10.41 13.7073 10.2836C13.6698 10.1573 13.6578 10.0248 13.6717 9.89376C13.6856 9.76273 13.7253 9.63575 13.7885 9.52011C13.8517 9.40447 13.9371 9.30246 14.0398 9.21994C14.1433 9.1289 14.2644 9.06024 14.3957 9.01825C14.527 8.97626 14.6655 8.96185 14.8026 8.97594C14.9397 8.99002 15.0724 9.03229 15.1924 9.1001C15.3123 9.1679 15.417 9.25977 15.4998 9.36994L20.3298 15.3699C20.4769 15.5489 20.5573 15.7733 20.5573 16.0049C20.5573 16.2366 20.4769 16.461 20.3298 16.6399L15.3298 22.6399C15.2295 22.761 15.1021 22.8566 14.9578 22.9192C14.8136 22.9817 14.6567 23.0094 14.4998 22.9999Z" fill="#111111"/>
</g>
<defs>
<clipPath id="clip0_1_3381">
<rect width="24" height="24" fill="white" transform="translate(4.5 4)"/>
</clipPath>
</defs>
</svg>
