<svg width="25" height="24" viewBox="0 0 25 24" fill="none" xmlns="http://www.w3.org/2000/svg">
<path d="M14.3297 19C14.1803 19.0005 14.0327 18.9676 13.8977 18.9035C13.7627 18.8395 13.6438 18.7461 13.5497 18.63L8.71968 12.63C8.57259 12.4511 8.49219 12.2267 8.49219 11.995C8.49219 11.7634 8.57259 11.539 8.71968 11.36L13.7197 5.36003C13.8894 5.15581 14.1333 5.02739 14.3978 5.00301C14.6622 4.97863 14.9255 5.06029 15.1297 5.23003C15.3339 5.39977 15.4623 5.64368 15.4867 5.90811C15.5111 6.17253 15.4294 6.43581 15.2597 6.64003L10.7897 12L15.1097 17.36C15.232 17.5068 15.3096 17.6856 15.3335 17.8751C15.3574 18.0647 15.3265 18.2571 15.2444 18.4296C15.1624 18.6021 15.0326 18.7475 14.8705 18.8486C14.7084 18.9497 14.5207 19.0023 14.3297 19Z" fill="#111111"/>
</svg>
