<svg width="21" height="20" viewBox="0 0 21 20" fill="none" xmlns="http://www.w3.org/2000/svg">
<path d="M18.5402 4.82165L12.7802 0.791647C11.2102 -0.308353 8.80023 -0.248353 7.29023 0.921647L2.28023 4.83165C1.28023 5.61165 0.490234 7.21165 0.490234 8.47165V15.3716C0.490234 17.9216 2.56023 20.0016 5.11023 20.0016H15.8902C18.4402 20.0016 20.5102 17.9316 20.5102 15.3816V8.60165C20.5102 7.25165 19.6402 5.59165 18.5402 4.82165ZM11.2502 16.0016C11.2502 16.4116 10.9102 16.7516 10.5002 16.7516C10.0902 16.7516 9.75023 16.4116 9.75023 16.0016V13.0016C9.75023 12.5916 10.0902 12.2516 10.5002 12.2516C10.9102 12.2516 11.2502 12.5916 11.2502 13.0016V16.0016Z" fill="#82B81C"/>
</svg>
