<svg width="42" height="42" viewBox="0 0 42 42" fill="none" xmlns="http://www.w3.org/2000/svg">
<path d="M21 3.5C16.415 3.5 12.6875 7.2275 12.6875 11.8125C12.6875 16.31 16.205 19.95 20.79 20.1075C20.93 20.09 21.07 20.09 21.175 20.1075C21.21 20.1075 21.2275 20.1075 21.2625 20.1075C21.28 20.1075 21.28 20.1075 21.2975 20.1075C25.7775 19.95 29.295 16.31 29.3125 11.8125C29.3125 7.2275 25.585 3.5 21 3.5Z" fill="#EEEEEE"/>
<path d="M29.8902 24.7625C25.0077 21.5075 17.0452 21.5075 12.1277 24.7625C9.90518 26.25 8.68018 28.2625 8.68018 30.415C8.68018 32.5675 9.90518 34.5625 12.1102 36.0325C14.5602 37.6775 17.7802 38.5 21.0002 38.5C24.2202 38.5 27.4402 37.6775 29.8902 36.0325C32.0952 34.545 33.3202 32.55 33.3202 30.38C33.3027 28.2275 32.0952 26.2325 29.8902 24.7625Z" fill="#EEEEEE"/>
</svg>
