<svg width="116" height="116" viewBox="0 0 116 116" fill="none" xmlns="http://www.w3.org/2000/svg">
<path d="M58.0969 14.0649C42.0985 14.0649 29.0968 27.0666 29.0968 43.0649V57.0333C29.0968 59.9816 27.8402 64.4766 26.3418 66.9899L20.7835 76.2216C17.3518 81.9249 19.7202 88.2566 26.0035 90.3833C46.8352 97.3433 69.3102 97.3433 90.1419 90.3833C95.9902 88.4499 98.5519 81.5383 95.3619 76.2216L89.8035 66.9899C88.3535 64.4766 87.0969 59.9816 87.0969 57.0333V43.0649C87.0969 27.1149 74.0469 14.0649 58.0969 14.0649Z" stroke="#9E9E9E" stroke-width="3.5" stroke-miterlimit="10" stroke-linecap="round"/>
<path d="M67.0381 15.4667C65.5398 15.0317 63.9931 14.6934 62.3981 14.5C57.7581 13.92 53.3115 14.2584 49.1548 15.4667C50.5565 11.89 54.0365 9.37671 58.0965 9.37671C62.1565 9.37671 65.6364 11.89 67.0381 15.4667Z" stroke="#9E9E9E" stroke-width="3.5" stroke-miterlimit="10" stroke-linecap="round" stroke-linejoin="round"/>
<path d="M72.5967 92.1233C72.5967 100.098 66.0717 106.623 58.0967 106.623C54.1333 106.623 50.46 104.98 47.85 102.37C45.24 99.76 43.5967 96.0866 43.5967 92.1233" stroke="#9E9E9E" stroke-width="3.5" stroke-miterlimit="10"/>
</svg>
