<svg width="33" height="32" viewBox="0 0 33 32" fill="none" xmlns="http://www.w3.org/2000/svg">
<circle cx="16.5" cy="16" r="15.5" fill="white" stroke="#F7F7F7"/>
<g clip-path="url(#clip0_1_3388)">
<path d="M18.3297 23C18.1803 23.0005 18.0327 22.9676 17.8977 22.9035C17.7627 22.8395 17.6438 22.7461 17.5497 22.63L12.7197 16.63C12.5726 16.4511 12.4922 16.2267 12.4922 15.995C12.4922 15.7634 12.5726 15.539 12.7197 15.36L17.7197 9.36003C17.8894 9.15581 18.1333 9.02739 18.3978 9.00301C18.6622 8.97863 18.9255 9.06029 19.1297 9.23003C19.3339 9.39977 19.4623 9.64368 19.4867 9.90811C19.5111 10.1725 19.4294 10.4358 19.2597 10.64L14.7897 16L19.1097 21.36C19.232 21.5068 19.3096 21.6856 19.3335 21.8751C19.3574 22.0647 19.3265 22.2571 19.2444 22.4296C19.1624 22.6021 19.0326 22.7475 18.8705 22.8486C18.7084 22.9497 18.5207 23.0023 18.3297 23Z" fill="#111111"/>
</g>
<defs>
<clipPath id="clip0_1_3388">
<rect width="24" height="24" fill="white" transform="translate(4.5 4)"/>
</clipPath>
</defs>
</svg>
