<svg width="16" height="16" viewBox="0 0 16 16" fill="none" xmlns="http://www.w3.org/2000/svg">
<path d="M11.334 2.06407L11.411 2.21707L11.987 3.75007C12.032 3.87007 12.127 3.96607 12.248 4.01107L13.728 4.56707C14.378 4.81007 14.727 5.50407 14.554 6.16107L14.512 6.29107L13.824 7.81407C13.7978 7.87222 13.7843 7.93528 13.7843 7.99907C13.7843 8.06286 13.7978 8.12592 13.824 8.18407L14.478 9.62407C14.6149 9.92592 14.635 10.2678 14.5345 10.5836C14.4341 10.8994 14.2201 11.1668 13.934 11.3341L13.781 11.4111L12.248 11.9871C12.1887 12.0098 12.1349 12.0448 12.0901 12.0897C12.0453 12.1347 12.0105 12.1887 11.988 12.2481L11.432 13.7281C11.3156 14.0388 11.0881 14.2953 10.7934 14.4479C10.4988 14.6005 10.158 14.6383 9.83705 14.5541L9.70705 14.5121L8.18405 13.8241C8.1259 13.7978 8.06283 13.7843 7.99905 13.7843C7.93526 13.7843 7.87219 13.7978 7.81405 13.8241L6.37504 14.4781C6.0732 14.6149 5.73136 14.635 5.41554 14.5346C5.09973 14.4341 4.83235 14.2202 4.66505 13.9341L4.58804 13.7811L4.01104 12.2481C3.98835 12.1888 3.95335 12.135 3.90837 12.0901C3.86339 12.0453 3.80943 12.0105 3.75004 11.9881L2.27004 11.4321C1.95932 11.3157 1.70283 11.0881 1.55024 10.7935C1.39765 10.4988 1.35981 10.158 1.44404 9.83707L1.48604 9.70707L2.17504 8.18407C2.20127 8.12592 2.21483 8.06286 2.21483 7.99907C2.21483 7.93528 2.20127 7.87222 2.17504 7.81407L1.52004 6.37507C1.38312 6.07335 1.36284 5.73159 1.46313 5.41579C1.56341 5.09998 1.77713 4.83253 2.06304 4.66507L2.21604 4.58807L3.75004 4.01007C3.80953 3.98749 3.86355 3.95255 3.90854 3.90757C3.95353 3.86258 3.98846 3.80856 4.01104 3.74907L4.56704 2.26907C4.68344 1.95856 4.91084 1.70224 5.20527 1.54967C5.4997 1.3971 5.84024 1.35912 6.16104 1.44307L6.29104 1.48507L7.81405 2.17407C7.87219 2.2003 7.93526 2.21386 7.99905 2.21386C8.06283 2.21386 8.1259 2.2003 8.18405 2.17407L9.62405 1.52007C9.92577 1.38315 10.2675 1.36287 10.5833 1.46315C10.8991 1.56344 11.1666 1.77816 11.334 2.06407ZM10.164 5.70407L6.97705 9.34407L5.81504 8.18207C5.73062 8.10129 5.61792 8.05678 5.50108 8.05806C5.38425 8.05935 5.27256 8.10634 5.18993 8.18896C5.10731 8.27158 5.06032 8.38327 5.05904 8.50011C5.05775 8.61695 5.10226 8.72965 5.18305 8.81407L6.68304 10.3141C6.72634 10.3573 6.77803 10.3911 6.83492 10.4135C6.89181 10.4359 6.9527 10.4464 7.01381 10.4444C7.07493 10.4423 7.13497 10.4277 7.19022 10.4015C7.24547 10.3753 7.29476 10.3381 7.33504 10.2921L10.835 6.29207C10.9063 6.20211 10.9402 6.08818 10.9298 5.97389C10.9194 5.85959 10.8654 5.75369 10.779 5.67811C10.6926 5.60253 10.5805 5.56307 10.4658 5.56791C10.3512 5.57274 10.2438 5.6215 10.164 5.70407Z" fill="#82B81C"/>
</svg>
