<svg width="17" height="17" viewBox="0 0 17 17" fill="none" xmlns="http://www.w3.org/2000/svg">
<path d="M14.5286 3.71875H12.2474L11.9818 2.92188C11.8538 2.53495 11.6069 2.19828 11.2764 1.95981C10.9459 1.72135 10.5486 1.59325 10.141 1.59375H6.85897C6.45152 1.59344 6.05435 1.72163 5.72396 1.96007C5.39357 2.19852 5.14679 2.53508 5.01872 2.92188L4.75256 3.71875H2.47137C1.95699 3.71931 1.46384 3.9239 1.10012 4.28762C0.736398 4.65134 0.531812 5.1445 0.53125 5.65888V13.4683C0.532374 13.9823 0.737209 14.4749 1.10087 14.8381C1.46453 15.2014 1.95736 15.4057 2.47137 15.4063H14.5307C15.0448 15.4051 15.5374 15.2003 15.9006 14.8366C16.2639 14.473 16.4682 13.9801 16.4688 13.4661V5.65675C16.4676 5.14274 16.2628 4.65013 15.8991 4.28687C15.5355 3.92361 15.0426 3.71931 14.5286 3.71875ZM15.4062 13.4661C15.406 13.6988 15.3134 13.9219 15.1489 14.0864C14.9844 14.2509 14.7613 14.3435 14.5286 14.3438H2.47137C2.2387 14.3435 2.01564 14.2509 1.85111 14.0864C1.68659 13.9219 1.59403 13.6988 1.59375 13.4661V5.65675C1.59459 5.42445 1.68739 5.20193 1.85186 5.03786C2.01632 4.87379 2.23907 4.78153 2.47137 4.78125H5.13559C5.24705 4.78117 5.35565 4.74603 5.44603 4.68082C5.53642 4.61561 5.604 4.52362 5.63922 4.41788L6.0265 3.25603C6.08466 3.08128 6.19638 2.92928 6.34581 2.82162C6.49524 2.71395 6.67479 2.65609 6.85897 2.65625H10.141C10.3253 2.65605 10.5049 2.71396 10.6544 2.82173C10.8038 2.92951 10.9155 3.08167 10.9735 3.25656L11.3608 4.41788C11.396 4.52362 11.4636 4.61561 11.554 4.68082C11.6444 4.74603 11.753 4.78117 11.8644 4.78125H14.5286C14.7613 4.78153 14.9844 4.87409 15.1489 5.03861C15.3134 5.20314 15.406 5.4262 15.4062 5.65888V13.4661Z" fill="#424242"/>
<path d="M8.5 5.3125C7.71197 5.3125 6.94163 5.54618 6.2864 5.98399C5.63117 6.4218 5.12049 7.04407 4.81892 7.77212C4.51735 8.50017 4.43845 9.30129 4.59219 10.0742C4.74592 10.8471 5.1254 11.557 5.68262 12.1143C6.23985 12.6715 6.9498 13.051 7.72269 13.2047C8.49558 13.3584 9.29671 13.2795 10.0248 12.978C10.7528 12.6764 11.3751 12.1657 11.8129 11.5105C12.2507 10.8552 12.4844 10.0849 12.4844 9.29688C12.4833 8.2405 12.0631 7.22771 11.3161 6.48074C10.5692 5.73377 9.55638 5.31363 8.5 5.3125ZM8.5 12.2188C7.92211 12.2188 7.35719 12.0474 6.87669 11.7263C6.39619 11.4053 6.02169 10.9489 5.80054 10.415C5.57939 9.88113 5.52153 9.29363 5.63427 8.72685C5.74701 8.16006 6.02529 7.63943 6.43392 7.2308C6.84256 6.82217 7.36318 6.54388 7.92997 6.43114C8.49676 6.3184 9.08425 6.37626 9.61816 6.59741C10.1521 6.81856 10.6084 7.19307 10.9295 7.67357C11.2505 8.15407 11.4219 8.71898 11.4219 9.29688C11.421 10.0715 11.1129 10.8142 10.5651 11.362C10.0174 11.9098 9.27467 12.2179 8.5 12.2188Z" fill="#424242"/>
<path d="M13.8125 6.90625C14.1059 6.90625 14.3438 6.6684 14.3438 6.375C14.3438 6.0816 14.1059 5.84375 13.8125 5.84375C13.5191 5.84375 13.2812 6.0816 13.2812 6.375C13.2812 6.6684 13.5191 6.90625 13.8125 6.90625Z" fill="#424242"/>
</svg>
