<svg width="32" height="32" viewBox="0 0 32 32" fill="none" xmlns="http://www.w3.org/2000/svg">
<rect width="32" height="32" rx="16" fill="#E6F1D2"/>
<g clip-path="url(#clip0_1_4473)">
<path d="M12 14.6663V13.333C12 11.1263 12.6667 9.33301 16 9.33301C19.3333 9.33301 20 11.1263 20 13.333V14.6663M16 20.333C16.442 20.333 16.866 20.1574 17.1785 19.8449C17.4911 19.5323 17.6667 19.1084 17.6667 18.6663C17.6667 18.2243 17.4911 17.8004 17.1785 17.4878C16.866 17.1753 16.442 16.9997 16 16.9997C15.558 16.9997 15.134 17.1753 14.8215 17.4878C14.5089 17.8004 14.3333 18.2243 14.3333 18.6663C14.3333 19.1084 14.5089 19.5323 14.8215 19.8449C15.134 20.1574 15.558 20.333 16 20.333Z" stroke="#82B81C" stroke-width="1.5" stroke-linecap="round" stroke-linejoin="round"/>
<path d="M19.3335 22.667H12.6668C10.0002 22.667 9.3335 22.0003 9.3335 19.3337V18.0003C9.3335 15.3337 10.0002 14.667 12.6668 14.667H19.3335C22.0002 14.667 22.6668 15.3337 22.6668 18.0003V19.3337C22.6668 22.0003 22.0002 22.667 19.3335 22.667Z" stroke="#82B81C" stroke-width="1.5" stroke-linecap="round" stroke-linejoin="round"/>
</g>
<defs>
<clipPath id="clip0_1_4473">
<rect width="16" height="16" fill="white" transform="translate(8 8)"/>
</clipPath>
</defs>
</svg>
