<svg width="145" height="122" viewBox="0 0 145 122" fill="none" xmlns="http://www.w3.org/2000/svg">
<path d="M125.25 61.9996C125.25 87.5428 104.543 108.25 79 108.25C53.4568 108.25 32.75 87.5428 32.75 61.9996C32.75 36.4564 53.4568 15.7495 79 15.7495C104.543 15.7495 125.25 36.4564 125.25 61.9996Z" stroke="#07BD74" stroke-width="1.5"/>
<path d="M137 23L139.161 27.7444L145 29.5L139.161 31.2556L137 36L134.839 31.2556L129 29.5L134.839 27.7444L137 23Z" fill="#D1D5DB"/>
<path d="M60 113L61.6205 116.285L66 117.5L61.6205 118.715L60 122L58.3795 118.715L54 117.5L58.3795 116.285L60 113Z" fill="#D1D5DB"/>
<path d="M17.5 68.999L19.5257 74.4734L25 76.499L19.5257 78.5247L17.5 83.9991L15.4743 78.5247L10 76.499L15.4743 74.4734L17.5 68.999Z" fill="#07BD74"/>
<path d="M10 84.0005L12.7009 91.2996L20 94.0005L12.7009 96.7014L10 104.001L7.29909 96.7014L0 94.0005L7.29909 91.2996L10 84.0005Z" fill="#07BD74"/>
<path d="M126 97.0015L128.701 104.301L136 107.001L128.701 109.702L126 117.002L123.299 109.702L116 107.001L123.299 104.301L126 97.0015Z" fill="#07BD74"/>
<path d="M16 22.0695L21.6486 16.0005L35 22.0695V27.0005L16 22.0695Z" fill="#D1D5DB"/>
<path d="M27.5306 2.0304L24.3258 9.67691L35.3539 19.3451L39.8475 17.3147L27.5306 2.0304Z" fill="#D1D5DB"/>
<ellipse cx="79" cy="61.9991" rx="42" ry="42.0001" fill="#F5F5F5"/>
<path d="M73.6149 86.6423C72.1141 86.6423 70.6927 85.9419 69.7819 84.7344L57.4551 68.4469C57.074 67.9439 56.7957 67.3708 56.6363 66.7602C56.4768 66.1496 56.4393 65.5135 56.5258 64.8884C56.6123 64.2633 56.8212 63.6613 57.1405 63.117C57.4598 62.5726 57.8832 62.0966 58.3866 61.716C58.8898 61.3338 59.4635 61.0547 60.0748 60.8946C60.6861 60.7346 61.3229 60.6967 61.9489 60.7833C62.5748 60.8698 63.1775 61.079 63.7224 61.3989C64.2674 61.7188 64.7438 62.1431 65.1244 62.6475L73.2354 73.3563L93.6283 40.6088C94.3047 39.5276 95.3822 38.7588 96.6247 38.4709C97.8671 38.1831 99.1729 38.3999 100.256 39.0736C102.509 40.4743 103.202 43.4413 101.794 45.6976L77.6997 84.3722C77.2884 85.0353 76.7214 85.5881 76.0481 85.9825C75.3747 86.3769 74.6153 86.601 73.8357 86.6354C73.7598 86.6423 73.6908 86.6423 73.6149 86.6423Z" fill="#07BD74"/>
</svg>
