<svg width="25" height="25" viewBox="0 0 25 25" fill="none" xmlns="http://www.w3.org/2000/svg">
<path d="M11.5 2.5H9.5C4.5 2.5 2.5 4.5 2.5 9.5V15.5C2.5 20.5 4.5 22.5 9.5 22.5H15.5C20.5 22.5 22.5 20.5 22.5 15.5V13.5" stroke="#FDFDFD" stroke-width="1.5" stroke-linecap="round" stroke-linejoin="round"/>
<path d="M16.5399 3.52025L8.65988 11.4003C8.35988 11.7003 8.05988 12.2903 7.99988 12.7203L7.56988 15.7303C7.40988 16.8203 8.17988 17.5803 9.26988 17.4303L12.2799 17.0003C12.6999 16.9403 13.2899 16.6403 13.5999 16.3403L21.4799 8.46025C22.8399 7.10025 23.4799 5.52025 21.4799 3.52025C19.4799 1.52025 17.8999 2.16025 16.5399 3.52025Z" stroke="#FDFDFD" stroke-width="1.5" stroke-miterlimit="10" stroke-linecap="round" stroke-linejoin="round"/>
<path d="M15.4102 4.65039C16.0802 7.04039 17.9502 8.91039 20.3502 9.59039" stroke="#FDFDFD" stroke-width="1.5" stroke-miterlimit="10" stroke-linecap="round" stroke-linejoin="round"/>
</svg>
