<svg width="32" height="32" viewBox="0 0 32 32" fill="none" xmlns="http://www.w3.org/2000/svg">
<rect width="32" height="32" rx="16" fill="#E6F1D2"/>
<path d="M19.3335 20.2868H16.6668L13.7002 22.2601C13.2602 22.5535 12.6668 22.2402 12.6668 21.7068V20.2868C10.6668 20.2868 9.3335 18.9535 9.3335 16.9535V12.9535C9.3335 10.9535 10.6668 9.62012 12.6668 9.62012H19.3335C21.3335 9.62012 22.6668 10.9535 22.6668 12.9535V16.9535C22.6668 18.9535 21.3335 20.2868 19.3335 20.2868Z" stroke="#82B81C" stroke-width="1.5" stroke-miterlimit="10" stroke-linecap="round" stroke-linejoin="round"/>
<path d="M16.0002 15.5732V15.4333C16.0002 14.9799 16.2802 14.7399 16.5602 14.5466C16.8336 14.3599 17.1069 14.1199 17.1069 13.6799C17.1069 13.0666 16.6135 12.5732 16.0002 12.5732C15.3869 12.5732 14.8936 13.0666 14.8936 13.6799" stroke="#82B81C" stroke-width="1.5" stroke-linecap="round" stroke-linejoin="round"/>
<path d="M15.9968 17.1663H16.0028" stroke="#82B81C" stroke-width="1.5" stroke-linecap="round" stroke-linejoin="round"/>
</svg>
