<svg width="17" height="17" viewBox="0 0 17 17" fill="none" xmlns="http://www.w3.org/2000/svg">
<path d="M15.3495 10.1295L15.0661 13.6712C14.9599 14.7549 14.8749 15.5837 12.9553 15.5837H4.04446C2.12488 15.5837 2.03988 14.7549 1.93363 13.6712L1.65029 10.1295C1.59363 9.54158 1.77779 8.99616 2.11071 8.57824C2.11779 8.57116 2.11779 8.57116 2.12488 8.56408C2.51446 8.08949 3.10238 7.79199 3.76113 7.79199H13.2386C13.8974 7.79199 14.4782 8.08949 14.8607 8.54991C14.8678 8.55699 14.8749 8.56408 14.8749 8.57116C15.222 8.98908 15.4132 9.53449 15.3495 10.1295Z" stroke="#424242" stroke-miterlimit="10"/>
<path d="M2.479 8.09583V4.44792C2.479 2.03958 3.08109 1.4375 5.48942 1.4375H6.389C7.28859 1.4375 7.494 1.70667 7.834 2.16L8.73359 3.36417C8.96025 3.66167 9.09484 3.84583 9.69692 3.84583H11.5032C13.9115 3.84583 14.5136 4.44792 14.5136 6.85625V8.12417" stroke="#424242" stroke-miterlimit="10" stroke-linecap="round" stroke-linejoin="round"/>
<path d="M6.67969 12.042H10.3205" stroke="#424242" stroke-miterlimit="10" stroke-linecap="round" stroke-linejoin="round"/>
</svg>
