<svg width="16" height="16" viewBox="0 0 16 16" fill="none" xmlns="http://www.w3.org/2000/svg">
<g clip-path="url(#clip0_2_15934)">
<path d="M4 6.66634V5.33301C4 3.12634 4.66667 1.33301 8 1.33301C11.3333 1.33301 12 3.12634 12 5.33301V6.66634M8 12.333C8.44203 12.333 8.86595 12.1574 9.17851 11.8449C9.49107 11.5323 9.66667 11.1084 9.66667 10.6663C9.66667 10.2243 9.49107 9.80039 9.17851 9.48783C8.86595 9.17527 8.44203 8.99967 8 8.99967C7.55797 8.99967 7.13405 9.17527 6.82149 9.48783C6.50893 9.80039 6.33333 10.2243 6.33333 10.6663C6.33333 11.1084 6.50893 11.5323 6.82149 11.8449C7.13405 12.1574 7.55797 12.333 8 12.333Z" stroke="#82B81C" stroke-width="1.5" stroke-linecap="round" stroke-linejoin="round"/>
<path d="M11.3335 14.667H4.66683C2.00016 14.667 1.3335 14.0003 1.3335 11.3337V10.0003C1.3335 7.33366 2.00016 6.66699 4.66683 6.66699H11.3335C14.0002 6.66699 14.6668 7.33366 14.6668 10.0003V11.3337C14.6668 14.0003 14.0002 14.667 11.3335 14.667Z" stroke="#82B81C" stroke-width="1.5" stroke-linecap="round" stroke-linejoin="round"/>
</g>
<defs>
<clipPath id="clip0_2_15934">
<rect width="16" height="16" fill="white"/>
</clipPath>
</defs>
</svg>
