<svg width="153" height="152" viewBox="0 0 153 152" fill="none" xmlns="http://www.w3.org/2000/svg">
<path d="M60.9625 136.705C60.9625 145.052 54.167 151.882 45.8615 151.882C37.556 151.882 30.7605 145.052 30.7605 136.705C30.7605 128.358 37.556 121.529 45.8615 121.529C54.167 121.529 60.9625 128.358 60.9625 136.705ZM121.366 121.529C113.061 121.529 106.265 128.358 106.265 136.705C106.265 145.052 113.061 151.882 121.366 151.882C129.672 151.882 136.467 145.052 136.467 136.705C136.467 128.358 129.672 121.529 121.366 121.529ZM47.3716 97.2466V96.4878L54.167 83.5878H110.041C115.326 83.5878 120.611 80.5525 122.876 75.9995L152.323 22.8819L139.487 15.2937L110.041 68.4113H57.1872L25.4752 0.117188H0.558594V15.2937H15.6596L42.8413 72.9642L32.2706 91.176C31.5156 93.4525 30.7605 95.729 30.7605 98.7642C30.7605 107.111 37.556 113.941 45.8615 113.941H136.467V98.7642H48.8817C48.1266 98.7642 47.3716 98.0054 47.3716 97.2466ZM83.6139 55.5113L79.0836 51.7172C63.9826 37.2995 53.412 28.1937 53.412 16.8113C53.412 7.70542 60.9625 0.117188 70.023 0.117188C75.3084 0.117188 80.5937 2.39366 83.6139 6.18778C86.6341 2.39366 91.9194 0.117188 97.2048 0.117188C106.265 0.117188 113.816 6.9466 113.816 16.8113C113.816 28.1937 103.245 37.2995 88.1442 51.7172L83.6139 55.5113Z" fill="#EEEEEE"/>
</svg>
