<svg width="14" height="15" viewBox="0 0 14 15" fill="none" xmlns="http://www.w3.org/2000/svg">
<path d="M10.334 1.56407L10.411 1.71707L10.987 3.25007C11.032 3.37007 11.127 3.46607 11.248 3.51107L12.728 4.06707C13.378 4.31007 13.727 5.00407 13.554 5.66107L13.512 5.79107L12.824 7.31407C12.7978 7.37222 12.7843 7.43528 12.7843 7.49907C12.7843 7.56286 12.7978 7.62592 12.824 7.68407L13.478 9.12407C13.6149 9.42592 13.635 9.76776 13.5345 10.0836C13.4341 10.3994 13.2201 10.6668 12.934 10.8341L12.781 10.9111L11.248 11.4871C11.1887 11.5098 11.1349 11.5448 11.0901 11.5897C11.0453 11.6347 11.0105 11.6887 10.988 11.7481L10.432 13.2281C10.3156 13.5388 10.0881 13.7953 9.79343 13.9479C9.49878 14.1005 9.15799 14.1383 8.83705 14.0541L8.70705 14.0121L7.18405 13.3241C7.1259 13.2978 7.06283 13.2843 6.99905 13.2843C6.93526 13.2843 6.87219 13.2978 6.81405 13.3241L5.37504 13.9781C5.0732 14.1149 4.73136 14.135 4.41554 14.0346C4.09973 13.9341 3.83235 13.7202 3.66505 13.4341L3.58804 13.2811L3.01104 11.7481C2.98835 11.6888 2.95335 11.635 2.90837 11.5901C2.86339 11.5453 2.80943 11.5105 2.75004 11.4881L1.27004 10.9321C0.959317 10.8157 0.702832 10.5881 0.550241 10.2935C0.397651 9.99881 0.35981 9.65802 0.444044 9.33707L0.486044 9.20707L1.17504 7.68407C1.20127 7.62592 1.21483 7.56286 1.21483 7.49907C1.21483 7.43528 1.20127 7.37222 1.17504 7.31407L0.520044 5.87507C0.383123 5.57335 0.362845 5.23159 0.463126 4.91579C0.563407 4.59998 0.777135 4.33253 1.06304 4.16507L1.21604 4.08807L2.75004 3.51007C2.80953 3.48749 2.86355 3.45255 2.90854 3.40757C2.95353 3.36258 2.98846 3.30856 3.01104 3.24907L3.56704 1.76907C3.68344 1.45856 3.91084 1.20224 4.20527 1.04967C4.4997 0.897096 4.84024 0.859117 5.16104 0.943073L5.29104 0.985073L6.81405 1.67407C6.87219 1.7003 6.93526 1.71386 6.99905 1.71386C7.06283 1.71386 7.1259 1.7003 7.18405 1.67407L8.62405 1.02007C8.92577 0.883152 9.26753 0.862874 9.58333 0.963155C9.89914 1.06344 10.1666 1.27816 10.334 1.56407ZM9.16405 5.20407L5.97705 8.84407L4.81504 7.68207C4.73062 7.60129 4.61792 7.55678 4.50108 7.55806C4.38425 7.55935 4.27256 7.60634 4.18993 7.68896C4.10731 7.77158 4.06032 7.88327 4.05904 8.00011C4.05775 8.11695 4.10226 8.22965 4.18305 8.31407L5.68304 9.81407C5.72634 9.85726 5.77803 9.8911 5.83492 9.91351C5.89181 9.93592 5.9527 9.94642 6.01381 9.94436C6.07493 9.9423 6.13497 9.92772 6.19022 9.90152C6.24547 9.87533 6.29476 9.83808 6.33504 9.79207L9.83505 5.79207C9.90631 5.70211 9.94024 5.58818 9.92981 5.47389C9.91938 5.35959 9.86539 5.25369 9.77902 5.17811C9.69264 5.10253 9.58051 5.06307 9.46584 5.06791C9.35117 5.07274 9.24375 5.1215 9.16405 5.20407Z" fill="#FAFAFA"/>
</svg>
